<svg width="109" height="35" viewBox="0 0 109 35" fill="none" xmlns="http://www.w3.org/2000/svg">
<path d="M17.7136 31.6814L16.1378 27.5918L31.3569 28.3812L30.6733 34.9265L17.7136 31.6814Z" fill="#E6E6E6"/>
<path d="M21.3595 0L0.0616455 10.143L3.35453 25.427H7.70011L6.9491 14.4946L7.61666 14.2843L10.2291 25.427H14.7416L14.5747 12.1101L15.2423 11.8998L17.5242 25.427H22.3031L23.4296 9.34061L24.0971 9.13031L25.2782 25.427H31.5976L33.8217 3.05746L21.3595 0Z" fill="#E6E6E6"/>
<path d="M105.462 31.1251L99.4029 30.0898L99.4285 29.2906L105.228 29.0738L105.08 27.5467H97.6249L97.2428 31.3807L103.405 32.4613L103.434 33.1666L97.0215 33.419L96.8641 34.9461H105.838L105.462 31.1251ZM47.5672 30.5524L47.4742 31.9372L49.6823 32.0116L49.6534 33.4158L45.035 33.2799L45.2372 29.2194L51.5886 29.0706L51.4956 27.5435H43.2923L42.5573 34.9429H51.9031L51.6624 30.4813L47.5672 30.5524ZM87.1332 33.2702L87.0883 31.9954L91.4595 31.9437L91.5012 30.5524L87.0369 30.4974L86.9919 29.2065L92.8749 29.0674L92.9229 27.5435H84.9893L84.7518 34.9429H93.0707L93.0129 33.4158L87.1332 33.2702Z" fill="#E6E6E6"/>
<path d="M80.7274 34.9429L79.9924 27.5435H77.8806L74.8445 31.0701L71.8116 27.5435H69.6998L68.9648 34.9429H71.4457L71.6832 30.1448L74.8445 33.4158L78.009 30.1448L78.2465 34.9429H80.7274Z" fill="#E6E6E6"/>
<path d="M70.2996 0.453613H65.3346L64.882 23.3312H70.8805L70.2996 0.453613Z" fill="#E6E6E6"/>
<path d="M90.4879 0.461914H75.0088L74.4055 23.3297H91.5887L90.4879 0.461914ZM85.6866 18.3537L80.2081 18.5316L80.0252 5.0756L85.754 5.25031L85.6866 18.3537Z" fill="#E6E6E6"/>
<path d="M109 5.45878L108.448 0.453613H93.1935L93.3219 4.912L98.2035 5.08348L98.7009 23.3312H104.712L102.915 5.24848L109 5.45878Z" fill="#E6E6E6"/>
<path d="M55.6236 23.3312H62.1387L57.8927 13.062L61.2818 11.1952L58.9646 0.453613H42.3301L41.7845 5.41025L45.5042 5.28407L43.7101 23.3312H49.5321L49.6893 17.5786L53.8841 15.2685L55.6236 23.3312ZM50.0327 5.13201L54.818 4.97024L55.3636 9.52892L49.8402 12.1593L50.0327 5.13201Z" fill="#E6E6E6"/>
<path d="M62.9415 34.9429H65.4544L63.4678 27.5435H57.5721L55.5854 34.9429H58.0984L58.4868 33.076L62.566 33.1278L62.9415 34.9429ZM58.7916 31.6072L59.2956 29.1871L61.7187 29.0771L62.2257 31.5069L58.7916 31.6072Z" fill="#E6E6E6"/>
</svg>
