<svg width="24" height="40" viewBox="0 0 24 40" fill="none" xmlns="http://www.w3.org/2000/svg">
<path d="M15.4001 28.9L17.9001 35.2H22.0001L23.8001 28.9H15.4001Z" fill="#4AC5F2"/>
<path d="M11.2001 23.1C9.7001 19.4 7.9001 14.5 8.4001 14.1C8.6001 13.9 9.6001 14.8 11.1001 17.4C11.3001 17.7 11.2001 17.3 11.2001 17.1C11.2001 15.1 11.2001 3.00001 11.2001 3.00001C11.2001 3.00001 5.8001 3.00001 5.3001 3.00001C5.0001 3.00001 4.9001 3.00001 4.9001 3.10001C4.8001 3.20001 4.9001 3.30001 4.9001 3.50001C6.8001 9.20001 7.6001 12.4 7.2001 12.7C7.0001 12.9 6.0001 11.4 4.4001 8.00001C2.0001 2.80001 0.500103 -0.099994 0.300103 0.100006C0.000102613 0.300006 1.7001 5.60001 6.0001 17.5C7.4001 21.4 7.9001 23.4 7.6001 23.6C7.3001 23.8 6.5001 22.5 5.3001 20.1C3.9001 17.3 3.3001 16.2 3.1001 16.2C2.9001 16.3 3.4001 18.1 4.3001 20.7C5.6001 24.8 7.8001 31.9 7.4001 32.2C7.2001 32.3 6.5001 31.2 5.1001 28.1C4.8001 27.4 4.6001 27.1 4.6001 27.1C4.6001 27.1 4.5001 27.2 4.5001 27.4C4.5001 27.8 4.5001 32 4.5001 32L2.9001 35.3H10.3001C8.4001 29.8 7.8001 27.3 8.1001 27.2C8.5001 27 10.1001 30.2 12.1001 35.3C14.0001 36.2 16.4001 38.5 17.8001 39.8C18.1001 40.1 18.2001 40.1 18.1001 39.8C16.4001 35.8 14.2001 30.5 11.2001 23.1Z" fill="#4AC5F2"/>
</svg>
